<?xml version="1.0" encoding="utf-8"?>
<svg xmlns="http://www.w3.org/2000/svg" xmlns:xlink="http://www.w3.org/1999/xlink" style="margin: auto; background: none; display: block; shape-rendering: auto;" width="200px" height="200px" viewBox="0 0 100 100" preserveAspectRatio="xMidYMid">
<g transform="translate(50 50)">
<g>
<animateTransform attributeName="transform" type="rotate" values="0;36" keyTimes="0;1" dur="0.8474576271186441s" repeatCount="indefinite"></animateTransform><path d="M25.411611519146124 -5.5 L33.41161151914612 -5.5 L33.41161151914612 5.5 L25.411611519146124 5.5 A26 26 0 0 1 23.791244461051992 10.48697701887741 L23.791244461051992 10.48697701887741 L30.26338041605157 15.189259037217195 L23.797742640834365 24.088445975341614 L17.325606685834785 19.38616395700183 A26 26 0 0 1 13.083430653493672 22.468285255782696 L13.083430653493672 22.468285255782696 L15.555566608493251 30.076737386143925 L5.093944929246566 33.47592432426835 L2.621808974246987 25.86747219390712 A26 26 0 0 1 -2.621808974246984 25.86747219390712 L-2.621808974246984 25.86747219390712 L-5.093944929246563 33.47592432426835 L-15.555566608493248 30.07673738614393 L-13.083430653493668 22.4682852557827 A26 26 0 0 1 -17.325606685834785 19.38616395700183 L-17.325606685834785 19.38616395700183 L-23.797742640834365 24.088445975341617 L-30.263380416051568 15.189259037217202 L-23.79124446105199 10.486977018877417 A26 26 0 0 1 -25.411611519146124 5.5 L-25.411611519146124 5.5 L-33.41161151914612 5.500000000000001 L-33.41161151914612 -5.499999999999993 L-25.411611519146124 -5.499999999999994 A26 26 0 0 1 -23.791244461051992 -10.48697701887741 L-23.791244461051992 -10.48697701887741 L-30.26338041605157 -15.189259037217195 L-23.79774264083437 -24.08844597534161 L-17.325606685834792 -19.386163957001827 A26 26 0 0 1 -13.083430653493682 -22.468285255782693 L-13.083430653493682 -22.468285255782693 L-15.555566608493262 -30.076737386143922 L-5.093944929246559 -33.47592432426835 L-2.6218089742469783 -25.86747219390712 A26 26 0 0 1 2.621808974246969 -25.86747219390712 L2.621808974246969 -25.86747219390712 L5.093944929246547 -33.47592432426835 L15.555566608493251 -30.076737386143925 L13.083430653493673 -22.468285255782696 A26 26 0 0 1 17.325606685834774 -19.38616395700184 L17.325606685834774 -19.38616395700184 L23.797742640834354 -24.088445975341628 L30.26338041605157 -15.189259037217195 L23.791244461051992 -10.486977018877408 A26 26 0 0 1 25.411611519146124 -5.500000000000014 M0 -20A20 20 0 1 0 0 20 A20 20 0 1 0 0 -20" fill="#353535"></path></g></g>
<!-- [ldio] generated by https://loading.io/ --></svg>